<?xml version="1.0" encoding="UTF-8"?>
<svg width="1000" height="600" viewBox="0 0 1000 600" xmlns="http://www.w3.org/2000/svg">
  <path d="M 155,135 L 169,129 183,123 198,119 215,116 229,114 245,113 261,114 276,116 289,120 299,125 307,132 313,140 317,149 319,159 319,169 317,179 313,188 307,196 299,203 289,208 276,212 261,214 245,215 229,214 215,212 198,209 183,205 169,199 155,193 143,185 133,176 125,166 119,155 116,143 115,131 116,119 119,107 125,96 133,86 143,77 155,70 169,65 183,61 198,59 215,58 229,59 245,61 261,65 276,70 289,77 299,86 307,96 313,107 317,119 319,131 319,143 317,155 313,166 307,176 299,185 289,193 276,199 261,203 245,205 229,206 215,205 198,203 183,199 169,193 155,185" 
        fill="#f0f0f0" stroke="#cccccc" stroke-width="2"/>
  <!-- Add more path elements for Alaska, Hawaii, and other territories if needed -->
</svg> 